<?xml version="1.0" encoding="UTF-8" standalone="no"?><!DOCTYPE svg PUBLIC "-//W3C//DTD SVG 1.1//EN" "http://www.w3.org/Graphics/SVG/1.1/DTD/svg11.dtd"><svg width="100%" height="100%" viewBox="0 0 25 21" version="1.1" xmlns="http://www.w3.org/2000/svg" xmlns:xlink="http://www.w3.org/1999/xlink" xml:space="preserve" xmlns:serif="http://www.serif.com/" style="fill-rule:evenodd;clip-rule:evenodd;stroke-linejoin:round;stroke-miterlimit:2;"><rect id="Artboard1" x="0" y="0" width="24.244" height="20.169" style="fill:none;"/><g><text x="-0.4px" y="7.949px" style="font-family:'Fresca-Regular', 'Fresca';font-size:12px;">FUN</text><text x="-0.4px" y="19.949px" style="font-family:'Fresca-Regular', 'Fresca';font-size:12px;">IDEA</text></g><path id="Love" d="M20.708,6.356c-0.025,-0.014 -0.05,-0.028 -0.076,-0.041c-0.479,-0.232 -1.086,-0.203 -1.593,0.062c-0.468,0.253 -0.789,0.686 -0.861,1.175c-0.089,0.578 0.114,1.251 0.295,1.845c0.04,0.138 0.079,0.275 0.113,0.392c0.123,0.431 0.254,0.85 0.379,1.248c0.074,0.223 0.141,0.458 0.209,0.693l0.073,0.255l0.259,-0.055c0.741,-0.152 1.51,-0.356 2.287,-0.604c0.078,-0.023 0.163,-0.058 0.254,-0.074c0.574,-0.178 1.298,-0.39 1.713,-0.904c0.333,-0.426 0.471,-0.944 0.376,-1.426c-0.09,-0.462 -0.383,-0.854 -0.811,-1.09c-0.025,-0.014 -0.038,-0.021 -0.063,-0.035c-0.694,-0.349 -1.285,-0.23 -1.691,-0.058c-0.053,-0.441 -0.259,-1.05 -0.863,-1.383Z" style="fill:#8c8c8c;"/><path id="Love1" serif:id="Love" d="M19.194,6.986c-0.025,-0.006 -0.049,-0.013 -0.073,-0.019c-0.456,-0.096 -0.964,0.055 -1.339,0.386c-0.344,0.313 -0.526,0.748 -0.485,1.177c0.046,0.509 0.36,1.038 0.638,1.505c0.062,0.108 0.124,0.216 0.177,0.309c0.195,0.34 0.393,0.667 0.583,0.979c0.11,0.174 0.216,0.359 0.322,0.544l0.116,0.201l0.209,-0.101c0.596,-0.284 1.206,-0.618 1.813,-0.991c0.062,-0.036 0.127,-0.084 0.2,-0.116c0.45,-0.272 1.02,-0.603 1.264,-1.126c0.194,-0.432 0.203,-0.9 0.021,-1.289c-0.174,-0.373 -0.504,-0.644 -0.917,-0.755c-0.024,-0.006 -0.036,-0.01 -0.06,-0.016c-0.662,-0.151 -1.139,0.074 -1.448,0.305c-0.136,-0.364 -0.439,-0.837 -1.021,-0.993Z"/></svg>