<?xml version="1.0" encoding="UTF-8" standalone="no"?><!DOCTYPE svg PUBLIC "-//W3C//DTD SVG 1.1//EN" "http://www.w3.org/Graphics/SVG/1.1/DTD/svg11.dtd"><svg width="100%" height="100%" viewBox="0 0 25 21" version="1.1" xmlns="http://www.w3.org/2000/svg" xmlns:xlink="http://www.w3.org/1999/xlink" xml:space="preserve" xmlns:serif="http://www.serif.com/" style="fill-rule:evenodd;clip-rule:evenodd;stroke-linejoin:round;stroke-miterlimit:2;"><rect id="Artboard1" x="0" y="0" width="24.244" height="20.169" style="fill:none;"/><g><g><path d="M1.16,7.913l-1.056,0.012l0.096,-7.656l3.588,-0.108l0,0.996l-2.556,-0.072l0,2.424l2.052,-0.084l-0.048,1.068l-2.04,-0.024l-0.036,3.444Z" style="fill-rule:nonzero;"/><path d="M9.464,0.065l0.108,3.252c-0,1.768 -0.272,3.016 -0.816,3.744c-0.216,0.288 -0.506,0.52 -0.87,0.696c-0.364,0.176 -0.756,0.264 -1.176,0.264c-0.42,-0 -0.762,-0.064 -1.026,-0.192c-0.264,-0.128 -0.48,-0.324 -0.648,-0.588c-0.168,-0.264 -0.308,-0.546 -0.42,-0.846c-0.112,-0.3 -0.196,-0.67 -0.252,-1.11c-0.08,-0.712 -0.12,-1.576 -0.12,-2.592l-0,-2.436l1.104,-0.132c-0.016,0.944 -0.024,1.72 -0.024,2.328c-0,0.608 0.018,1.172 0.054,1.692c0.036,0.52 0.106,1.012 0.21,1.476c0.208,0.912 0.62,1.368 1.236,1.368c0.56,0 0.976,-0.318 1.248,-0.954c0.272,-0.636 0.408,-1.63 0.408,-2.982c-0,-0.8 -0.044,-1.764 -0.132,-2.892l1.116,-0.096Z" style="fill-rule:nonzero;"/><path d="M11.888,8.069l-1.056,-0.048l-0.168,-7.764l1.14,-0.06l2.88,5.448l-0.084,-5.58l1.176,0.084l-0.204,7.944l-0.732,-0.024l-3.204,-5.832l0.252,5.832Z" style="fill-rule:nonzero;"/></g><g><path d="M0.284,12.185l1.176,-0.06l-0.132,7.788l-0.972,0.036l-0.072,-7.764Z" style="fill-rule:nonzero;"/><path d="M4.4,19.961c-0.72,-0 -1.236,-0.024 -1.548,-0.072l-0.144,-7.68c0.136,-0.016 0.564,-0.024 1.284,-0.024c0.72,-0 1.308,0.064 1.764,0.192c0.456,0.128 0.872,0.332 1.248,0.612c0.784,0.584 1.176,1.576 1.176,2.976c0,1.248 -0.342,2.226 -1.026,2.934c-0.684,0.708 -1.602,1.062 -2.754,1.062Zm2.664,-3.87c0,-1.156 -0.272,-1.968 -0.816,-2.436c-0.544,-0.468 -1.36,-0.702 -2.448,-0.702l0.06,6.192c0.888,0 1.628,-0.212 2.22,-0.636c0.656,-0.456 0.984,-1.262 0.984,-2.418Z" style="fill-rule:nonzero;"/><path d="M9.044,12.269l3.636,-0.192l0.048,1.068l-2.616,-0.012l0.048,2.304l2.1,-0.036l-0.012,1.056l-2.052,-0.048l0,2.556l2.592,-0.072l0,1.092l-3.6,-0.048l-0.144,-7.668Z" style="fill-rule:nonzero;"/><path d="M17,17.897l-2.196,-0.048l-0.504,2.256l-1.032,-0.156l1.98,-7.704l0.948,-0.072l2.496,7.776l-1.044,0.156l-0.648,-2.208Zm-2.028,-0.78l1.812,0.048l-1.032,-3.552l-0.78,3.504Z" style="fill-rule:nonzero;"/></g></g><path id="Love" d="M20.708,6.356c-0.025,-0.014 -0.05,-0.028 -0.076,-0.041c-0.479,-0.232 -1.086,-0.203 -1.593,0.062c-0.468,0.253 -0.789,0.686 -0.861,1.175c-0.089,0.578 0.114,1.251 0.295,1.845c0.04,0.138 0.079,0.275 0.113,0.392c0.123,0.431 0.254,0.85 0.379,1.248c0.074,0.223 0.141,0.458 0.209,0.693l0.073,0.255l0.259,-0.055c0.741,-0.152 1.51,-0.356 2.287,-0.604c0.078,-0.023 0.163,-0.058 0.254,-0.074c0.574,-0.178 1.298,-0.39 1.713,-0.904c0.333,-0.426 0.471,-0.944 0.376,-1.426c-0.09,-0.462 -0.383,-0.854 -0.811,-1.09c-0.025,-0.014 -0.038,-0.021 -0.063,-0.035c-0.694,-0.349 -1.285,-0.23 -1.691,-0.058c-0.053,-0.441 -0.259,-1.05 -0.863,-1.383Z" style="fill:#8c8c8c;"/><path id="Love1" serif:id="Love" d="M19.194,6.986c-0.025,-0.006 -0.049,-0.013 -0.073,-0.019c-0.456,-0.096 -0.964,0.055 -1.339,0.386c-0.344,0.313 -0.526,0.748 -0.485,1.177c0.046,0.509 0.36,1.038 0.638,1.505c0.062,0.108 0.124,0.216 0.177,0.309c0.195,0.34 0.393,0.667 0.583,0.979c0.11,0.174 0.216,0.359 0.322,0.544l0.116,0.201l0.209,-0.101c0.596,-0.284 1.206,-0.618 1.813,-0.991c0.062,-0.036 0.127,-0.084 0.2,-0.116c0.45,-0.272 1.02,-0.603 1.264,-1.126c0.194,-0.432 0.203,-0.9 0.021,-1.289c-0.174,-0.373 -0.504,-0.644 -0.917,-0.755c-0.024,-0.006 -0.036,-0.01 -0.06,-0.016c-0.662,-0.151 -1.139,0.074 -1.448,0.305c-0.136,-0.364 -0.439,-0.837 -1.021,-0.993Z"/></svg>